<?xml version="1.0" standalone="no"?>
<!DOCTYPE svg PUBLIC "-//W3C//DTD SVG 20010904//EN"
 "http://www.w3.org/TR/2001/REC-SVG-20010904/DTD/svg10.dtd">
<svg version="1.0" xmlns="http://www.w3.org/2000/svg"
 width="600.000000pt" height="600.000000pt" viewBox="0 0 600.000000 600.000000"
 preserveAspectRatio="xMidYMid meet">
<metadata>
Created by potrace 1.14, written by Peter Selinger 2001-2017
</metadata>
<g transform="translate(0.000000,600.000000) scale(0.100000,-0.100000)"
fill="#000000" stroke="none">
<path d="M5575 3863 c-1665 -458 -2388 -785 -2965 -1342 -92 -88 -103 -103
-87 -112 58 -34 751 -288 936 -343 l50 -15 57 102 c224 403 556 762 992 1076
275 197 692 430 1065 596 94 42 130 67 116 79 -2 2 -76 -17 -164 -41z"/>
<path d="M2230 3829 c-802 -19 -1440 -101 -1842 -238 -138 -47 -140 -38 23
-134 163 -96 414 -238 506 -286 l62 -33 148 62 c608 253 1420 414 2426 481
161 11 187 15 185 28 -2 10 -16 17 -38 19 -74 6 -290 44 -410 71 -120 28 -137
29 -435 33 -170 2 -452 1 -625 -3z"/>
<path d="M4835 3725 c-25 -9 -309 -26 -577 -35 -230 -7 -343 -16 -523 -40
-939 -126 -1721 -332 -2215 -586 -58 -29 -122 -64 -143 -77 l-38 -23 258 -126
c244 -120 524 -248 541 -248 5 0 38 25 75 55 556 458 1340 786 2412 1009 283
59 265 55 265 66 0 10 -34 12 -55 5z"/>
</g>
</svg>
